# xmcd
#
# Track frame offsets:
#	150
#	15192
#	35630
#	51517
#	63297
#	74060
#	94125
#	108077
#	120285
#	136280
#
# Disc length: 2049 seconds
#
# Revision: 3
# Processed by: cddbd v1.5.2PL0 Copyright (c) Steve Scherf et al.
# Submitted via: audiograbber 1.83.01
#
DISCID=8307ff0a
DTITLE=Lacy J. Dalton - Chains On The Wind
DYEAR=1992
DGENRE=Country
TTITLE0=Heartache In Disguise
TTITLE1=Chains On The Wind
TTITLE2=Rocks From A Rolling Stone
TTITLE3=Love Hurts
TTITLE4=Bye Bye Love (with Eddie Rabbitt )
TTITLE5=Stay With Me
TTITLE6=Here Today Here Tomorrow
TTITLE7=Never Gonna Lose My Love
TTITLE8=Lay A Little Love On Me
TTITLE9=Like The Answer To A Prayer
EXTD=
EXTT0=
EXTT1=
EXTT2=
EXTT3=
EXTT4=
EXTT5=
EXTT6=
EXTT7=
EXTT8=
EXTT9=
PLAYORDER=
